<svg xmlns="http://www.w3.org/2000/svg" version="1.1" xmlns:xlink="http://www.w3.org/1999/xlink" xmlns:svgjs="http://svgjs.dev/svgjs" width="2000" height="1500" viewBox="0 0 2000 1500"><rect width="2000" height="1500" fill="#1ebbd7"></rect><g transform="matrix(0.75,0,0,0.75,249.78667664670684,-0.21332335329350371)"><svg viewBox="0 0 334 334" data-background-color="#1ebbd7" preserveAspectRatio="xMidYMid meet" height="2000" width="2000" xmlns="http://www.w3.org/2000/svg" xmlns:xlink="http://www.w3.org/1999/xlink"><g id="tight-bounds" transform="matrix(1,0,0,1,0.04749999999998522,0.04750000000001364)"><svg viewBox="0 0 333.90454557049503 333.90454557049503" height="333.90454557049503" width="333.90454557049503"><g><svg></svg></g><g><svg viewBox="0 0 333.90454557049503 333.90454557049503" height="333.90454557049503" width="333.90454557049503"><g><path d="M0 166.952c0-92.205 74.747-166.952 166.952-166.952 92.205 0 166.952 74.747 166.953 166.952 0 92.205-74.747 166.952-166.953 166.953-92.205 0-166.952-74.747-166.952-166.953zM166.952 316.63c82.665 0 149.677-67.013 149.678-149.678 0-82.665-67.013-149.677-149.678-149.677-82.665 0-149.677 67.013-149.677 149.677 0 82.665 67.013 149.677 149.677 149.678z" data-fill-palette-color="tertiary" fill="#ffffff" stroke="transparent"></path><ellipse rx="160.27418187383762" ry="160.27418187383762" cx="166.95227278524752" cy="166.95227278524752" fill="#ffffff" stroke="transparent" stroke-width="0" fill-opacity="1" data-fill-palette-color="tertiary"></ellipse></g><g transform="matrix(1,0,0,1,86.62131356095583,71.17305217166896)"><svg viewBox="0 0 160.66191844858338 191.55844122715712" height="191.55844122715712" width="160.66191844858338"><g><svg viewBox="0 0 160.66191844858338 191.55844122715712" height="191.55844122715712" width="160.66191844858338"><g><svg viewBox="0 0 160.66191844858338 191.55844122715712" height="191.55844122715712" width="160.66191844858338"><g><svg viewBox="0 0 160.66191844858338 191.55844122715712" height="191.55844122715712" width="160.66191844858338"><g id="textblocktransform"><svg viewBox="0 0 160.66191844858338 191.55844122715712" height="191.55844122715712" width="160.66191844858338" id="textblock"><g><svg viewBox="0 0 160.66191844858338 191.55844122715712" height="191.55844122715712" width="160.66191844858338"><g transform="matrix(1,0,0,1,0,0)"><svg width="160.66191844858338" viewBox="0.95 -34.1 28.6 34.1" height="191.55844122715712" data-palette-color="#1ebbd7"><path d="M0.95 0L12.65-34.1 17.85-34.1 29.55 0 25.2 0 22.2-9.1 8.35-9.1 5.3 0 0.95 0ZM9.65-13.1L20.85-13.1 15.35-30.1 15.2-30.1 9.65-13.1Z" opacity="1" transform="matrix(1,0,0,1,0,0)" fill="#1ebbd7" class="wordmark-text-0" data-fill-palette-color="quaternary" id="text-0"></path></svg></g></svg></g></svg></g></svg></g><g></g></svg></g></svg></g></svg></g></svg></g><defs></defs></svg><rect width="333.90454557049503" height="333.90454557049503" fill="none" stroke="none" visibility="hidden"></rect></g></svg></g></svg>